<svg viewBox="0 0 644.1043 589.6556" width="5000" height="4577.330100109563" xmlns="http://www.w3.org/2000/svg" xmlns:xlink="http://www.w3.org/1999/xlink" preserveAspectRatio="none"><defs></defs><style>.a6izo4zJpcolor {fill:#FFFFFF;fill-opacity:1;}.aLgOaV3zRcolors-0 {fill:#FFFFFF;fill-opacity:1;}.amx2pT18w1colors-0 {fill:#FFFFFF;fill-opacity:1;}.companyName {fill:#FFFFFF;fill-opacity:1;}</style><g opacity="1" transform="rotate(0 4.20859999999999 533.9606)">
<svg width="637.7914" height="55.695" x="4.20859999999999" y="533.9606" version="1.1" preserveAspectRatio="none" viewBox="3.56 -29.2 436.48 38.120000000000005">
  <g transform="matrix(1 0 0 1 0 0)" class="a6izo4zJpcolor"><path d="M6.36 0L3.56 0L3.56-28.40L15.32-28.40Q17.16-28.40 18.70-27.62Q20.24-26.84 21.36-25.58Q22.48-24.32 23.12-22.72Q23.76-21.12 23.76-19.48L23.76-19.48Q23.76-17.72 23.16-16.10Q22.56-14.48 21.48-13.24Q20.40-12 18.90-11.24Q17.40-10.48 15.56-10.48L15.56-10.48L6.36-10.48L6.36 0ZM6.36-25.92L6.36-12.96L15.44-12.96Q16.68-12.96 17.70-13.50Q18.72-14.04 19.44-14.94Q20.16-15.84 20.56-17.02Q20.96-18.20 20.96-19.48L20.96-19.48Q20.96-20.80 20.50-21.98Q20.04-23.16 19.26-24.04Q18.48-24.92 17.42-25.42Q16.36-25.92 15.20-25.92L15.20-25.92L6.36-25.92Z M47-12.20L47 0L44.28 0L44.28-11.64Q44.28-15.20 43.06-16.96Q41.84-18.72 39.48-18.72L39.48-18.72Q38.32-18.72 37.18-18.26Q36.04-17.80 35.04-17Q34.04-16.20 33.30-15.12Q32.56-14.04 32.20-12.76L32.20-12.76L32.20 0L29.48 0L29.48-29.20L32.20-29.20L32.20-16.12Q33.44-18.48 35.64-19.84Q37.84-21.20 40.40-21.20L40.40-21.20Q42.20-21.20 43.44-20.54Q44.68-19.88 45.48-18.70Q46.28-17.52 46.64-15.86Q47-14.20 47-12.20L47-12.20Z M63.28 0.40L63.28 0.40Q61 0.40 59.12-0.46Q57.24-1.32 55.86-2.80Q54.48-4.28 53.72-6.24Q52.96-8.20 52.96-10.36L52.96-10.36Q52.96-12.56 53.74-14.52Q54.52-16.48 55.90-17.96Q57.28-19.44 59.16-20.32Q61.04-21.20 63.28-21.20L63.28-21.20Q65.52-21.20 67.42-20.32Q69.32-19.44 70.70-17.96Q72.08-16.48 72.86-14.52Q73.64-12.56 73.64-10.36L73.64-10.36Q73.64-8.20 72.88-6.24Q72.12-4.28 70.74-2.80Q69.36-1.32 67.46-0.46Q65.56 0.40 63.28 0.40ZM55.72-10.32L55.72-10.32Q55.72-8.56 56.32-7.06Q56.92-5.56 57.94-4.42Q58.96-3.28 60.34-2.64Q61.72-2 63.28-2L63.28-2Q64.84-2 66.22-2.66Q67.60-3.32 68.64-4.46Q69.68-5.60 70.28-7.12Q70.88-8.64 70.88-10.40L70.88-10.40Q70.88-12.12 70.28-13.66Q69.68-15.20 68.64-16.34Q67.60-17.48 66.22-18.14Q64.84-18.80 63.28-18.80L63.28-18.80Q61.72-18.80 60.36-18.14Q59-17.48 57.96-16.32Q56.92-15.16 56.32-13.62Q55.72-12.08 55.72-10.32Z M88.80-3.20L89.52-1Q89.28-0.88 88.82-0.68Q88.36-0.48 87.76-0.28Q87.16-0.08 86.40 0.08Q85.64 0.24 84.80 0.24L84.80 0.24Q83.92 0.24 83.12 0Q82.32-0.24 81.72-0.74Q81.12-1.24 80.76-2Q80.40-2.76 80.40-3.76L80.40-3.76L80.40-18.68L77.52-18.68L77.52-20.84L80.40-20.84L80.40-27.88L83.12-27.88L83.12-20.84L87.92-20.84L87.92-18.68L83.12-18.68L83.12-4.52Q83.20-3.36 83.94-2.82Q84.68-2.28 85.64-2.28L85.64-2.28Q86.80-2.28 87.68-2.66Q88.56-3.04 88.80-3.20L88.80-3.20Z M102.88 0.40L102.88 0.40Q100.60 0.40 98.72-0.46Q96.84-1.32 95.46-2.80Q94.08-4.28 93.32-6.24Q92.56-8.20 92.56-10.36L92.56-10.36Q92.56-12.56 93.34-14.52Q94.12-16.48 95.50-17.96Q96.88-19.44 98.76-20.32Q100.64-21.20 102.88-21.20L102.88-21.20Q105.12-21.20 107.02-20.32Q108.92-19.44 110.30-17.96Q111.68-16.48 112.46-14.52Q113.24-12.56 113.24-10.36L113.24-10.36Q113.24-8.20 112.48-6.24Q111.72-4.28 110.34-2.80Q108.96-1.32 107.06-0.46Q105.16 0.40 102.88 0.40ZM95.32-10.32L95.32-10.32Q95.32-8.56 95.92-7.06Q96.52-5.56 97.54-4.42Q98.56-3.28 99.94-2.64Q101.32-2 102.88-2L102.88-2Q104.44-2 105.82-2.66Q107.20-3.32 108.24-4.46Q109.28-5.60 109.88-7.12Q110.48-8.64 110.48-10.40L110.48-10.40Q110.48-12.12 109.88-13.66Q109.28-15.20 108.24-16.34Q107.20-17.48 105.82-18.14Q104.44-18.80 102.88-18.80L102.88-18.80Q101.32-18.80 99.96-18.14Q98.60-17.48 97.56-16.32Q96.52-15.16 95.92-13.62Q95.32-12.08 95.32-10.32Z M127.76 0.28L127.76 0.28Q125.60 0.28 123.82-0.62Q122.04-1.52 120.74-3Q119.44-4.48 118.72-6.40Q118.00-8.32 118.00-10.36L118.00-10.36Q118.00-12.52 118.70-14.50Q119.40-16.48 120.68-17.96Q121.96-19.44 123.74-20.32Q125.52-21.20 127.68-21.20L127.68-21.20Q130.36-21.20 132.32-19.86Q134.28-18.52 135.68-16.48L135.68-16.48L135.68-20.84L138.12-20.84L138.12 0.08Q138.12 2.24 137.30 3.90Q136.48 5.56 135.10 6.68Q133.72 7.80 131.86 8.36Q130 8.92 127.92 8.92L127.92 8.92Q124.32 8.92 122.12 7.64Q119.92 6.36 118.56 4.20L118.56 4.20L120.24 2.88Q121.48 4.88 123.52 5.82Q125.56 6.76 127.92 6.76L127.92 6.76Q129.44 6.76 130.80 6.34Q132.16 5.92 133.18 5.10Q134.20 4.28 134.80 3.02Q135.40 1.76 135.40 0.08L135.40 0.08L135.40-4.04Q134.20-2.04 132.12-0.88Q130.04 0.28 127.76 0.28ZM128.52-2L128.52-2Q129.72-2 130.88-2.44Q132.04-2.88 132.98-3.62Q133.92-4.36 134.56-5.28Q135.20-6.20 135.40-7.16L135.40-7.16L135.40-13.60Q134.96-14.72 134.20-15.68Q133.44-16.64 132.48-17.32Q131.52-18 130.42-18.40Q129.32-18.80 128.20-18.80L128.20-18.80Q126.44-18.80 125.06-18.06Q123.68-17.32 122.72-16.12Q121.76-14.92 121.26-13.40Q120.76-11.88 120.76-10.32L120.76-10.32Q120.76-8.64 121.36-7.12Q121.96-5.60 123.02-4.46Q124.08-3.32 125.48-2.66Q126.88-2 128.52-2Z M156.12-20.92L156.12-18.44Q153.36-18.36 151.32-16.92Q149.28-15.48 148.44-12.96L148.44-12.96L148.44 0L145.72 0L145.72-20.84L148.28-20.84L148.28-15.84Q149.44-18.24 151.40-19.60Q153.36-20.96 155.60-20.96L155.60-20.96Q155.92-20.96 156.12-20.92L156.12-20.92Z M166.32 0.40L166.32 0.40Q164.84 0.40 163.58-0.10Q162.32-0.60 161.38-1.48Q160.44-2.36 159.92-3.54Q159.40-4.72 159.40-6.08L159.40-6.08Q159.40-7.44 160.04-8.60Q160.68-9.76 161.84-10.60Q163.00-11.44 164.60-11.90Q166.20-12.36 168.12-12.36L168.12-12.36Q169.72-12.36 171.36-12.08Q173.00-11.80 174.28-11.28L174.28-11.28L174.28-13.16Q174.28-15.92 172.72-17.54Q171.16-19.16 168.40-19.16L168.40-19.16Q166.80-19.16 165.12-18.52Q163.44-17.88 161.72-16.68L161.72-16.68L160.76-18.48Q164.80-21.20 168.60-21.20L168.60-21.20Q172.52-21.20 174.76-19Q177-16.80 177-12.92L177-12.92L177-3.52Q177-2.40 178-2.40L178-2.40L178 0Q177.32 0.12 176.96 0.12L176.96 0.12Q175.92 0.12 175.34-0.40Q174.76-0.92 174.72-1.84L174.72-1.84L174.64-3.48Q173.20-1.60 171.02-0.60Q168.84 0.40 166.32 0.40ZM166.96-1.68L166.96-1.68Q169.08-1.68 170.86-2.48Q172.64-3.28 173.56-4.60L173.56-4.60Q173.92-4.96 174.10-5.38Q174.28-5.80 174.28-6.16L174.28-6.16L174.28-9.56Q172.92-10.08 171.46-10.36Q170.00-10.64 168.48-10.64L168.48-10.64Q165.60-10.64 163.80-9.44Q162.00-8.24 162.00-6.28L162.00-6.28Q162.00-5.32 162.38-4.48Q162.76-3.64 163.42-3.02Q164.08-2.40 165.00-2.04Q165.92-1.68 166.96-1.68Z M195.12 0.40L195.12 0.40Q192.48 0.40 190.46-0.94Q188.44-2.28 187.20-4.32L187.20-4.32L187.20 8.52L184.48 8.52L184.48-20.84L186.92-20.84L186.92-16.80Q188.20-18.76 190.24-19.98Q192.28-21.20 194.68-21.20L194.68-21.20Q196.84-21.20 198.64-20.30Q200.44-19.40 201.76-17.90Q203.08-16.40 203.82-14.44Q204.56-12.48 204.56-10.40L204.56-10.40Q204.56-8.20 203.88-6.24Q203.20-4.28 201.94-2.80Q200.68-1.32 198.94-0.46Q197.20 0.40 195.12 0.40ZM194.36-2L194.36-2Q196.04-2 197.42-2.72Q198.80-3.44 199.78-4.62Q200.76-5.80 201.28-7.30Q201.80-8.80 201.80-10.40L201.80-10.40Q201.80-12.08 201.20-13.60Q200.60-15.12 199.56-16.28Q198.52-17.44 197.10-18.12Q195.68-18.80 194.04-18.80L194.04-18.80Q193-18.80 191.86-18.38Q190.72-17.96 189.74-17.26Q188.76-16.56 188.06-15.62Q187.36-14.68 187.20-13.64L187.20-13.64L187.20-7.24Q187.68-6.12 188.42-5.16Q189.16-4.20 190.10-3.50Q191.04-2.80 192.12-2.40Q193.20-2 194.36-2Z M228.28-12.20L228.28 0L225.56 0L225.56-11.64Q225.56-15.20 224.34-16.96Q223.12-18.72 220.76-18.72L220.76-18.72Q219.60-18.72 218.46-18.26Q217.32-17.80 216.32-17Q215.32-16.20 214.58-15.12Q213.84-14.04 213.48-12.76L213.48-12.76L213.48 0L210.76 0L210.76-29.20L213.48-29.20L213.48-16.12Q214.72-18.48 216.92-19.84Q219.12-21.20 221.68-21.20L221.68-21.20Q223.48-21.20 224.72-20.54Q225.96-19.88 226.76-18.70Q227.56-17.52 227.92-15.86Q228.28-14.20 228.28-12.20L228.28-12.20Z M236.32 8.80L236.32 6.40Q236.64 6.44 236.94 6.46Q237.24 6.48 237.52 6.48L237.52 6.48Q238.24 6.48 238.66 6.28Q239.08 6.08 239.48 5.40Q239.88 4.72 240.38 3.44Q240.88 2.16 241.80 0L241.80 0L232.72-20.84L235.52-20.84L243.24-2.52L250.40-20.84L253.00-20.84L242.20 6.04Q241.76 7.20 240.74 8.06Q239.72 8.92 237.96 8.92L237.96 8.92Q237.56 8.92 237.20 8.90Q236.84 8.88 236.32 8.80L236.32 8.80Z M292.56 0L288.96 0L285.68-3.44Q284-1.64 281.82-0.62Q279.64 0.40 277.08 0.40L277.08 0.40Q275.20 0.40 273.54-0.16Q271.88-0.72 270.66-1.74Q269.44-2.76 268.72-4.18Q268-5.60 268-7.32L268-7.32Q268-8.76 268.48-9.96Q268.96-11.16 269.80-12.18Q270.64-13.20 271.72-14.08Q272.80-14.96 274-15.76L274-15.76Q272.92-16.92 272.18-17.84Q271.44-18.76 270.98-19.54Q270.52-20.32 270.32-21.04Q270.12-21.76 270.12-22.52L270.12-22.52Q270.12-23.84 270.66-24.98Q271.20-26.12 272.16-26.96Q273.12-27.80 274.42-28.28Q275.72-28.76 277.24-28.76L277.24-28.76Q278.64-28.76 279.84-28.36Q281.04-27.96 281.94-27.22Q282.84-26.48 283.36-25.44Q283.88-24.40 283.88-23.16L283.88-23.16Q283.88-21.92 283.38-20.90Q282.88-19.88 282.04-18.96Q281.20-18.04 280.08-17.20Q278.96-16.36 277.68-15.52L277.68-15.52L285.64-7.20Q286.44-8.72 286.90-10.50Q287.36-12.28 287.36-14.24L287.36-14.24L289.68-14.24Q289.64-11.76 289.02-9.56Q288.40-7.36 287.24-5.52L287.24-5.52L292.56 0ZM277.36-1.80L277.36-1.80Q279.40-1.80 281.12-2.66Q282.84-3.52 284.16-5.04L284.16-5.04L275.56-14.12Q273.44-12.64 272.04-11.02Q270.64-9.40 270.64-7.24L270.64-7.24Q270.64-5.92 271.22-4.90Q271.80-3.88 272.76-3.18Q273.72-2.48 274.92-2.14Q276.12-1.80 277.36-1.80ZM272.64-22.60L272.64-22.60Q272.64-22.12 272.78-21.64Q272.92-21.16 273.32-20.54Q273.72-19.92 274.38-19.10Q275.04-18.28 276.12-17.16L276.12-17.16Q278.44-18.68 279.90-20.02Q281.36-21.36 281.36-23.08L281.36-23.08Q281.36-24.64 280.20-25.64Q279.04-26.64 277.24-26.64L277.24-26.64Q276.24-26.64 275.40-26.32Q274.56-26 273.94-25.44Q273.32-24.88 272.98-24.16Q272.64-23.44 272.64-22.60Z M318.20 0.40L318.20 0.40Q315.92 0.40 314.02-0.46Q312.12-1.32 310.72-2.82Q309.32-4.32 308.54-6.28Q307.76-8.24 307.76-10.48L307.76-10.48Q307.76-12.68 308.54-14.62Q309.32-16.56 310.70-18.02Q312.08-19.48 314.00-20.34Q315.92-21.20 318.16-21.20L318.16-21.20Q320.44-21.20 322.34-20.34Q324.24-19.48 325.60-18Q326.96-16.52 327.72-14.60Q328.48-12.68 328.48-10.52L328.48-10.52Q328.48-10.20 328.48-9.88Q328.48-9.56 328.44-9.44L328.44-9.44L310.60-9.44Q310.72-7.76 311.38-6.34Q312.04-4.92 313.08-3.88Q314.12-2.84 315.46-2.26Q316.80-1.68 318.32-1.68L318.32-1.68Q319.32-1.68 320.32-1.96Q321.32-2.24 322.16-2.72Q323.00-3.20 323.68-3.90Q324.36-4.60 324.72-5.44L324.72-5.44L327.08-4.80Q326.60-3.64 325.72-2.70Q324.84-1.76 323.68-1.06Q322.52-0.36 321.12 0.02Q319.72 0.40 318.20 0.40ZM310.56-11.52L325.88-11.52Q325.76-13.20 325.10-14.58Q324.44-15.96 323.42-16.96Q322.40-17.96 321.06-18.52Q319.72-19.08 318.20-19.08L318.20-19.08Q316.68-19.08 315.32-18.52Q313.96-17.96 312.94-16.96Q311.92-15.96 311.30-14.56Q310.68-13.16 310.56-11.52L310.56-11.52Z M342.84 0.40L342.84 0.40Q340.68 0.40 338.84-0.50Q337.00-1.40 335.68-2.88Q334.36-4.36 333.62-6.30Q332.88-8.24 332.88-10.36L332.88-10.36Q332.88-12.56 333.60-14.54Q334.32-16.52 335.58-18Q336.84-19.48 338.58-20.34Q340.32-21.20 342.40-21.20L342.40-21.20Q345.04-21.20 347.08-19.82Q349.12-18.44 350.28-16.48L350.28-16.48L350.28-29.20L353.00-29.20L353.00-3.52Q353.00-2.40 353.96-2.40L353.96-2.40L353.96 0Q353.36 0.12 353.00 0.12L353.00 0.12Q352.04 0.12 351.32-0.50Q350.60-1.12 350.60-2L350.60-2L350.60-4.04Q349.36-2 347.24-0.80Q345.12 0.40 342.84 0.40ZM343.44-2L343.44-2Q344.44-2 345.58-2.40Q346.72-2.80 347.72-3.50Q348.72-4.20 349.42-5.14Q350.12-6.08 350.28-7.16L350.28-7.16L350.28-13.60Q349.88-14.68 349.12-15.62Q348.36-16.56 347.38-17.28Q346.40-18 345.28-18.40Q344.16-18.80 343.08-18.80L343.08-18.80Q341.40-18.80 340.04-18.08Q338.68-17.36 337.70-16.18Q336.72-15 336.20-13.48Q335.68-11.96 335.68-10.36L335.68-10.36Q335.68-8.68 336.28-7.16Q336.88-5.64 337.92-4.50Q338.96-3.36 340.38-2.68Q341.80-2 343.44-2Z M363.48 0L360.76 0L360.76-20.84L363.48-20.84L363.48 0ZM363.48-25.20L360.76-25.20L360.76-29.20L363.48-29.20L363.48-25.20Z M380.36-3.20L381.08-1Q380.84-0.88 380.38-0.68Q379.92-0.48 379.32-0.28Q378.72-0.08 377.96 0.08Q377.20 0.24 376.36 0.24L376.36 0.24Q375.48 0.24 374.68 0Q373.88-0.24 373.28-0.74Q372.68-1.24 372.32-2Q371.96-2.76 371.96-3.76L371.96-3.76L371.96-18.68L369.08-18.68L369.08-20.84L371.96-20.84L371.96-27.88L374.68-27.88L374.68-20.84L379.48-20.84L379.48-18.68L374.68-18.68L374.68-4.52Q374.76-3.36 375.50-2.82Q376.24-2.28 377.20-2.28L377.20-2.28Q378.36-2.28 379.24-2.66Q380.12-3.04 380.36-3.20L380.36-3.20Z M388.80 0L386.08 0L386.08-20.84L388.80-20.84L388.80 0ZM388.80-25.20L386.08-25.20L386.08-29.20L388.80-29.20L388.80-25.20Z M413.92-12.20L413.92 0L411.20 0L411.20-11.64Q411.20-15.36 410.10-17.04Q409.00-18.72 406.72-18.72L406.72-18.72Q405.52-18.72 404.32-18.28Q403.12-17.84 402.10-17.04Q401.08-16.24 400.28-15.14Q399.48-14.04 399.12-12.76L399.12-12.76L399.12 0L396.40 0L396.40-20.84L398.88-20.84L398.88-16.12Q400.16-18.40 402.54-19.80Q404.92-21.20 407.72-21.20L407.72-21.20Q409.44-21.20 410.64-20.56Q411.84-19.92 412.56-18.76Q413.28-17.60 413.60-15.92Q413.92-14.24 413.92-12.20L413.92-12.20Z M429.68 0.28L429.68 0.28Q427.52 0.28 425.74-0.62Q423.96-1.52 422.66-3Q421.36-4.48 420.64-6.40Q419.92-8.32 419.92-10.36L419.92-10.36Q419.92-12.52 420.62-14.50Q421.32-16.48 422.60-17.96Q423.88-19.44 425.66-20.32Q427.44-21.20 429.60-21.20L429.60-21.20Q432.28-21.20 434.24-19.86Q436.20-18.52 437.60-16.48L437.60-16.48L437.60-20.84L440.04-20.84L440.04 0.08Q440.04 2.24 439.22 3.90Q438.40 5.56 437.02 6.68Q435.64 7.80 433.78 8.36Q431.92 8.92 429.84 8.92L429.84 8.92Q426.24 8.92 424.04 7.64Q421.84 6.36 420.48 4.20L420.48 4.20L422.16 2.88Q423.40 4.88 425.44 5.82Q427.48 6.76 429.84 6.76L429.84 6.76Q431.36 6.76 432.72 6.34Q434.08 5.92 435.10 5.10Q436.12 4.28 436.72 3.02Q437.32 1.76 437.32 0.08L437.32 0.08L437.32-4.04Q436.12-2.04 434.04-0.88Q431.96 0.28 429.68 0.28ZM430.44-2L430.44-2Q431.64-2 432.80-2.44Q433.96-2.88 434.90-3.62Q435.84-4.36 436.48-5.28Q437.12-6.20 437.32-7.16L437.32-7.16L437.32-13.60Q436.88-14.72 436.12-15.68Q435.36-16.64 434.40-17.32Q433.44-18 432.34-18.40Q431.24-18.80 430.12-18.80L430.12-18.80Q428.36-18.80 426.98-18.06Q425.60-17.32 424.64-16.12Q423.68-14.92 423.18-13.40Q422.68-11.88 422.68-10.32L422.68-10.32Q422.68-8.64 423.28-7.12Q423.88-5.60 424.94-4.46Q426.00-3.32 427.40-2.66Q428.80-2 430.44-2Z"/></g>
</svg>
</g><g opacity="1" transform="rotate(0 2.1043000000000234 244.7147)">
<svg width="642" height="278.4747" x="2.1043000000000234" y="244.7147" version="1.1" preserveAspectRatio="none" viewBox="7.0313 -29.5508 95.6835 41.5039">
  <g transform="matrix(1 0 0 1 0 0)" class="companyName"><path d="M8.50-10.92L7.58-10.68Q7.03-10.68 7.03-11.37L7.03-11.37Q7.03-11.88 7.49-12.48Q7.95-13.09 8.05-13.28Q8.14-13.48 8.56-13.89Q8.98-14.30 9.31-14.38Q9.63-14.45 10.63-14.55L10.63-14.55Q13.67-14.84 17.27-14.88L17.27-14.88Q21.17-20.80 23.63-23.67L23.63-23.67Q19.98-23.01 14.67-23.01L14.67-23.01Q7.46-23.01 7.46-26.23L7.46-26.23Q7.46-27.15 8.39-27.83Q9.32-28.52 10.73-28.52Q12.15-28.52 12.15-28.18L12.15-28.18Q12.15-28.01 11.71-28.01Q11.27-28.01 10.89-27.69Q10.51-27.36 10.51-27.07L10.51-27.07Q10.51-26.62 12.42-26.41Q14.34-26.19 18.33-26.19Q22.32-26.19 26.99-26.91L26.99-26.91Q28.54-28.18 29.89-28.83Q31.25-29.47 32.66-29.47Q34.06-29.47 34.49-28.85Q34.92-28.22 34.93-27.91Q34.94-27.60 34.47-27.09Q34.00-26.58 33.16-26.05L33.16-26.05Q31.19-24.84 27.99-24.61L27.99-24.61Q24.57-20.29 20.94-14.84L20.94-14.84Q22.44-14.79 23.75-14.62Q25.06-14.45 25.06-13.59L25.06-13.59Q25.06-13.24 23.95-12.25L23.95-12.25Q23.83-12.11 23.65-11.84L23.65-11.84Q23.34-11.37 23.04-11.37Q22.73-11.37 22.34-11.45L22.34-11.45Q20.82-11.50 20.06-11.50L20.06-11.50L18.79-11.48Q11.91-0.78 11.69-0.36Q11.46 0.06 11.20 0.27Q10.94 0.49 10.55 0.49Q10.16 0.49 9.45 0.36Q8.75 0.23 8.40 0.05Q8.05-0.14 8.05-0.42Q8.05-0.70 8.22-1.23L8.22-1.23Q8.69-2.54 14.79-11.33L14.79-11.33Q10.82-11.13 8.50-10.92L8.50-10.92ZM31.62-28.01L32.38-28.32Q32.07-28.22 31.62-28.01L31.62-28.01Z M37.70-14.88Q38.28-14.88 38.90-14.36Q39.51-13.83 39.51-12.74Q39.51-11.66 38.75-9.93Q37.99-8.20 36.66-6.42Q35.33-4.63 33.74-3.06Q32.15-1.48 30.30-0.48Q28.46 0.53 26.95 0.53Q25.45 0.53 24.54-0.42Q23.63-1.37 23.63-3.06Q23.63-4.75 24.46-6.80Q25.29-8.85 26.60-10.42Q27.91-11.99 29.43-13.24L29.43-13.24Q32.62-15.80 35.02-15.80L35.02-15.80Q36.09-15.80 36.64-15.27L36.64-15.27Q36.84-15.10 36.84-14.96L36.84-14.96L36.84-14.84Q37.11-14.88 37.70-14.88ZM35.72-12.29L35.72-12.29L35.59-12.29Q34.90-12.29 34.90-13.28L34.90-13.28Q33.48-12.81 31.91-11.64Q30.35-10.47 29.12-8.87L29.12-8.87Q26.62-5.66 26.58-3.46L26.58-3.46Q26.58-2.36 27.38-2.36Q28.18-2.36 29.77-3.42Q31.35-4.47 32.90-6.43Q34.45-8.38 35.22-9.81Q36.00-11.25 36.00-11.77Q36.00-12.29 35.72-12.29Z M53.32-17.60L53.32-17.60Q53.57-17.75 54.00-17.75Q54.43-17.75 55.10-17.26Q55.76-16.76 55.76-16.40Q55.76-16.04 55.51-15.82Q55.25-15.61 53.72-14.21Q52.19-12.81 50.21-11.00Q48.24-9.18 47.07-8.13L47.07-8.13Q46.91-6.25 46.91-4.25Q46.91-2.25 47.44-2.25L47.44-2.25Q48.57-2.40 50.18-4.06L50.18-4.06Q50.76-4.67 51.34-5.29Q51.91-5.92 52.04-6.03Q52.17-6.13 52.36-6.13L52.36-6.13Q52.71-6.13 52.80-5.72Q52.89-5.31 52.89-4.54Q52.89-3.77 52.79-3.55L52.79-3.55Q52.27-2.46 50.32-0.89Q48.38 0.68 46.64 0.68L46.64 0.68Q43.81 0.68 43.81-3.22L43.81-3.22Q43.81-4.02 43.93-5.16L43.93-5.16Q40.66-1.72 38.67 0.80L38.67 0.80Q38.52 1.02 38.03 1.02Q37.54 1.02 36.93 0.53Q36.33 0.04 36.33-0.36Q36.33-0.76 36.41-1.00L36.41-1.00Q36.62-1.78 38.92-4.26Q41.21-6.74 44.16-9.28L44.16-9.28Q44.08-10.96 44.08-11.87Q44.08-12.77 43.97-12.77Q43.87-12.77 43.25-12.21Q42.64-11.64 42.29-11.64Q41.93-11.64 41.65-12.27Q41.37-12.89 41.37-13.14L41.37-13.14Q41.37-14.02 42.86-15.39Q44.36-16.76 45.61-16.76L45.61-16.76Q45.96-16.76 46.53-16.40Q47.11-16.04 47.15-15.61L47.15-15.61Q47.29-13.55 47.29-12.21L47.29-12.21Q50.35-15.55 53.32-17.60Z M71.11-5.76L71.11-5.76Q71.25-4.86 71.25-4.35Q71.25-3.83 71.06-3.45Q70.88-3.07 70.24-2.37Q69.61-1.68 68.73-0.98L68.73-0.98Q66.58 0.72 64.34 0.72L64.34 0.72Q61.11 0.72 61.11-2.13L61.11-2.13Q61.11-4.61 65.43-12.01L65.43-12.01Q65.59-12.29 65.64-12.40L65.64-12.40Q64.14-11.35 59.89-6.65Q55.64-1.95 54.24 0L54.24 0Q54.12 0.18 53.65 0.39Q53.18 0.61 52.92 0.61Q52.66 0.61 52.35 0.44Q52.05 0.27 51.97 0.27L51.97 0.27Q51.72 0.27 51.72 0.11Q51.72-0.06 52.41-1.69Q53.11-3.32 54.24-5.74L54.24-5.74Q57.34-12.42 63.48-23.13L63.48-23.13Q65.63-26.88 66.84-28.44L66.84-28.44Q67.70-29.55 69.73-29.55L69.73-29.55Q70.16-29.55 70.21-29.30Q70.27-29.04 70.27-28.75Q70.27-28.46 70.16-28.16L70.16-28.16L68.07-24.90Q61.86-15.21 58.71-8.85L58.71-8.85Q61.76-12.56 64.63-14.57L64.63-14.57Q66.41-15.84 67.29-15.84Q68.18-15.84 68.91-15.56Q69.63-15.27 69.63-14.20L69.63-14.20Q69.63-13.81 68.36-11.31L68.36-11.31Q64.55-3.81 64.55-2.98Q64.55-2.15 65.23-2.15L65.23-2.15Q66.23-2.15 68.30-4.08L68.30-4.08Q69.86-5.55 70.27-5.96L70.27-5.96Q70.51-6.13 70.70-6.13L70.70-6.13Q71.07-6.13 71.11-5.76Z M75.57 6.48L75.57 6.48Q75.47 6.58 74.97 7.47Q74.47 8.36 73.91 9.27Q73.34 10.18 72.51 11.00Q71.68 11.82 71.12 11.88Q70.57 11.95 70.41 11.95L70.41 11.95Q68.61 11.95 68.61 10.14L68.61 10.14Q68.61 8.01 70.82 5.16L70.82 5.16Q71.66 4.08 72.93 2.84Q74.20 1.60 74.32 1.44Q74.43 1.27 77.25-4.04L77.25-4.04Q75.37-1.99 73.77-0.71Q72.17 0.57 70.68 0.72L70.68 0.72L70.55 0.72Q69.79 0.72 69.04 0.22Q68.30-0.27 68.30-1.52L68.30-1.52Q68.30-3.38 69.30-5.12L69.30-5.12Q69.65-5.72 70.52-7.17Q71.39-8.61 72.13-9.96L72.13-9.96Q72.83-11.04 73.57-12.46Q74.32-13.89 74.71-14.50Q75.10-15.12 75.45-15.12Q75.80-15.12 76.36-14.68Q76.91-14.24 76.91-13.63Q76.91-13.03 74.36-8.38Q71.80-3.73 71.80-3.09L71.80-3.09Q71.80-2.93 71.95-2.93L71.95-2.93Q72.48-2.93 74.29-4.42Q76.09-5.92 78.28-8.26L78.28-8.26Q80.72-10.86 82.11-13.01L82.11-13.01Q82.29-13.28 82.39-13.43Q82.50-13.57 82.67-13.82Q82.83-14.06 82.94-14.20Q83.05-14.34 83.19-14.52Q83.34-14.71 83.46-14.80Q83.57-14.90 83.71-15L83.71-15Q83.93-15.20 84.19-15.20Q84.45-15.20 84.99-15.08Q85.53-14.96 85.63-14.82Q85.74-14.69 85.86-14.57L85.86-14.57Q86.05-14.36 86.05-14.17Q86.05-13.98 85.90-13.68Q85.74-13.38 84.08-10.59L84.08-10.59Q79.20-2.34 77.36 1.45L77.36 1.45Q80.33-1.05 85.72-5.96L85.72-5.96Q85.94-6.13 86.15-6.13L86.15-6.13Q86.76-6.13 86.76-4.28L86.76-4.28Q86.76-3.73 86.56-3.55L86.56-3.55Q80.72 0.94 75.57 6.48Z M95.45-3.01L95.45-3.01Q95.45-2.15 96.62-2.15L96.62-2.15Q97.25-2.15 98.19-2.77Q99.14-3.40 99.90-4.14L99.90-4.14Q101.93-6.15 102.21-6.15L102.21-6.15Q102.71-6.15 102.71-4.69Q102.71-3.22 101.80-2.68L101.80-2.68Q99.00-0.16 97.48 0.39L97.48 0.39Q96.62 0.68 95.59 0.66Q94.55 0.64 93.54-0.23Q92.52-1.11 92.52-2.37Q92.52-3.63 93.18-5.23Q93.85-6.84 94.54-7.98Q95.23-9.12 96.25-10.63Q97.27-12.15 97.32-12.52L97.32-12.52L97.29-12.56Q96.64-12.50 94.09-10.02Q91.54-7.54 89.88-5.70Q88.22-3.87 85.92-0.80L85.92-0.80Q85.27 0.04 84.86 0.04Q84.45 0.04 83.76-0.22Q83.07-0.49 82.91-0.61Q82.75-0.72 82.75-0.96Q82.75-1.19 82.89-1.53Q83.03-1.88 83.15-2.10Q83.28-2.32 83.57-2.79Q83.87-3.26 84.74-4.78Q85.61-6.29 87.40-9.30Q89.20-12.30 89.55-12.93L89.55-12.93Q90.29-14.22 90.76-14.80L90.76-14.80Q91.64-15.92 93.73-15.92L93.73-15.92Q94.20-15.92 94.20-15.33L94.20-15.33Q94.20-14.41 92.50-11.88L92.50-11.88L91.68-10.64Q95.06-14.39 97.38-15.39L97.38-15.39Q98.52-15.88 99.42-15.88Q100.33-15.88 100.87-15.39Q101.41-14.90 101.41-14.31Q101.41-13.71 101.00-12.88Q100.59-12.05 100.17-11.40Q99.75-10.74 99.06-9.75Q98.38-8.75 98.32-8.66Q98.26-8.57 98.02-8.19Q97.77-7.81 97.66-7.64Q97.54-7.46 97.27-7.02Q96.99-6.58 96.83-6.29Q96.66-6.00 96.42-5.57Q96.17-5.14 96.03-4.82Q95.88-4.51 95.72-4.14L95.72-4.14Q95.45-3.46 95.45-3.01Z"/></g>
</svg>
</g><g opacity="1" transform="rotate(0 335.14599999999996 0)">
<svg width="306.854" height="236.096" x="335.14599999999996" y="0" version="1.1" preserveAspectRatio="none" viewBox="4.211931228637695 9.581000328063965 46.57606506347656 35.836002349853516">
  <g transform="matrix(1 0 0 1 0 0)" class="amx2pT18w1colors-0"><path d="M50.788,41.18c0,0-1.049-3.377-4.286-8.01c1.115,0.475,2.055,0.816,2.055,0.816c-1.427-3.064-4.822-5.875-7.008-7.459  c0.689,0.184,1.707,0.369,3.004,0.369c0,0-3.594-3.107-6.592-6.141c-2.141-2.166-6.82-6.299-10.318-7.658  c0,0,0.106,1.943,0.83,3.693c0,0-3.399-7.211-5.155-7.209c-0.218,0-0.549,1.605-1.074,3.471c-0.521-1.215-1.277-2.252-2.366-2.441  c-0.484-0.084,0.125,3.754-0.003,6.938c-1.775,0.506-6.579,2.164-7.631,5.529c-1.295,4.148-4.405,4.148-6.997,4.666  c-2.593,0.518,0.44,5.172,0.958,6.986c0.517,1.814,12.099,0.645,15.29,3.109c3.492,2.697,4.43,4.92,5.303,7.578h23.237  c0,0-0.963-3.791-2.244-5.498C47.791,39.92,48.879,40.279,50.788,41.18z M16.724,26.193c-0.804,0-1.456-0.652-1.456-1.457  c0-0.803,0.652-1.455,1.456-1.455s1.456,0.652,1.456,1.455C18.18,25.541,17.528,26.193,16.724,26.193z"></path></g>
</svg>
</g><g opacity="1" transform="rotate(0 0 0.00010000000003174137)">
<svg width="273.2" height="236.0959" x="0" y="0.00010000000003174137" version="1.1" preserveAspectRatio="none" viewBox="2.875 6.7779998779296875 91.94998931884766 79.46199798583984">
  <g transform="matrix(1 0 0 1 0 0)" class="aLgOaV3zRcolors-0"><polyline points="40.797,31.038 59.307,33.707 62.652,6.778 47.928,14.657 "></polyline><path d="M16.497,34.623l8.602-19.695L41.17,6.778l-2.716,26.034l26.487,3.848l6.34,9.961l23.544,3.396l-1.132,6.338l-9.283,6.112  l-26.714,5.429L43.208,80.572l-2.49-9.281l-14.941,5.887l-1.131-14.26l-10.64,2.714L16.497,34.623z M53.857,45.772l-12.748-1.403  l6.375,6.784l5.555,0.585l2.76-2.457L53.857,45.772z"></path><polyline points="14.703,34.74 6.138,37.234 2.875,54.31 4.852,54.31 3.731,79.924 7.825,79.223 7.474,84.485 14.005,83.082   14.005,86.24 40.222,76.298 39.457,73.215 24.085,79.451 22.948,64.872 12.103,67.409 "></polyline></g>
</svg>
</g></svg>